ffmpeg started on 2026-01-16 at 15:54:57
Report written to "D:\Convert\FFMetrics\reports\psnr_report-6.txt"
Log level: 32
Command line:
ffmpeg -hide_banner -nostdin -r 24000/1001 -i "F:\\Convert\\files\\[DC] Make Heroine ga Oosugiru - 07_Telegram_HEVC(143).mkv" -r 24000/1001 -i "F:\\Convert\\files\\[DC] Make Heroine ga Oosugiru - 07_Telegram.mp4" -lavfi "[0:v]settb=AVTB,setpts=PTS-STARTPTS,format=pix_fmts=yuv420p10le,fps=24000/1001,scale=1920:1080:flags=lanczos:param0=3:out_range=limited:out_color_matrix=bt709:out_chroma_loc=left,setsar=1/1,setdar=(1920/1080)*(1/1),colorspace=format=yuv420p10:range=tv:primaries=bt709:trc=bt709:space=bt709:fast=0[main];[1:v]settb=AVTB,setpts=PTS-STARTPTS,format=pix_fmts=yuv420p,fps=24000/1001,scale=1920:1080:flags=lanczos:param0=3:out_range=limited:out_color_matrix=bt709:out_chroma_loc=left,setsar=1.000,setdar=1.778,colorspace=format=yuv420p:range=tv:primaries=bt709:trc=bt709:space=bt709:fast=0[ref];[main][ref]psnr=eof_action=endall:stats_file='D\\:/Convert/FFMetrics/logs/psnr_logfile-6.txt'" -f null -
Input #0, matroska,webm, from 'F:\Convert\files\[DC] Make Heroine ga Oosugiru - 07_Telegram_HEVC(143).mkv':
  Metadata:
    COMPATIBLE_BRANDS: isomiso2avc1mp41
    MAJOR_BRAND     : isom
    MINOR_VERSION   : 512
    ENCODER         : Lavf61.7.100
  Duration: 00:24:06.79, start: -0.021000, bitrate: 970 kb/s
  Stream #0:0: Video: hevc (Main 10), yuv420p10le(tv, bt709, progressive), 1920x1080 [SAR 1:1 DAR 16:9], 23.98 fps, 23.98 tbr, 1k tbn (default)
      Metadata:
        HANDLER_NAME    : VideoHandler
        VENDOR_ID       : [0][0][0][0]
        ENCODER         : Lavc61.19.100 libx265
        BPS             : 773840
        DURATION        : 00:24:06.569708333
        NUMBER_OF_FRAMES: 34683
        NUMBER_OF_BYTES : 139926704
        _STATISTICS_WRITING_APP: mkvpropedit v94.0 ('Initiate') 64-bit
        _STATISTICS_WRITING_DATE_UTC: 2026-01-16 12:11:54
        _STATISTICS_TAGS: BPS DURATION NUMBER_OF_FRAMES NUMBER_OF_BYTES
  Stream #0:1: Audio: aac (LC), 48000 Hz, stereo, fltp (default)
      Metadata:
        HANDLER_NAME    : SoundHandler
        VENDOR_ID       : [0][0][0][0]
        ENCODER         : Lavc61.19.100 aac
        BPS             : 193194
        DURATION        : 00:24:06.784000000
        NUMBER_OF_FRAMES: 67819
        NUMBER_OF_BYTES : 34938755
        _STATISTICS_WRITING_APP: mkvpropedit v94.0 ('Initiate') 64-bit
        _STATISTICS_WRITING_DATE_UTC: 2026-01-16 12:11:54
        _STATISTICS_TAGS: BPS DURATION NUMBER_OF_FRAMES NUMBER_OF_BYTES
Input #1, mov,mp4,m4a,3gp,3g2,mj2, from 'F:\Convert\files\[DC] Make Heroine ga Oosugiru - 07_Telegram.mp4':
  Metadata:
    major_brand     : isom
    minor_version   : 512
    compatible_brands: isomiso2avc1mp41
    encoder         : Lavf60.16.100
  Duration: 00:24:06.74, start: 0.000000, bitrate: 3764 kb/s
  Stream #1:0[0x1](und): Video: h264 (High) (avc1 / 0x31637661), yuv420p(tv, bt709, progressive), 1920x1080 [SAR 1:1 DAR 16:9], 3616 kb/s, 23.98 fps, 23.98 tbr, 24k tbn (default)
      Metadata:
        handler_name    : VideoHandler
        vendor_id       : [0][0][0][0]
        encoder         : Lavc60.31.102 h264_qsv
  Stream #1:1[0x2](und): Audio: aac (HE-AACv2) (mp4a / 0x6134706D), 48000 Hz, stereo, fltp, 144 kb/s (default)
      Metadata:
        handler_name    : SoundHandler
        vendor_id       : [0][0][0][0]
Stream mapping:
  Stream #0:0 (hevc) -> settb:default
  Stream #1:0 (h264) -> settb:default
  psnr:default -> Stream #0:0 (wrapped_avframe)
  Stream #0:1 -> #0:1 (aac (native) -> pcm_s16le (native))
Output #0, null, to 'pipe:':
  Metadata:
    COMPATIBLE_BRANDS: isomiso2avc1mp41
    MAJOR_BRAND     : isom
    MINOR_VERSION   : 512
    encoder         : Lavf61.7.100
  Stream #0:0: Video: wrapped_avframe, yuv420p10le(tv, bt709, progressive), 1920x1080 [SAR 1:1 DAR 16:9], q=2-31, 200 kb/s, 23.98 fps, 23.98 tbn
      Metadata:
        encoder         : Lavc61.19.100 wrapped_avframe
  Stream #0:1: Audio: pcm_s16le, 48000 Hz, stereo, s16, 1536 kb/s (default)
      Metadata:
        HANDLER_NAME    : SoundHandler
        VENDOR_ID       : [0][0][0][0]
        _STATISTICS_TAGS: BPS DURATION NUMBER_OF_FRAMES NUMBER_OF_BYTES
        BPS             : 193194
        DURATION        : 00:24:06.784000000
        NUMBER_OF_FRAMES: 67819
        NUMBER_OF_BYTES : 34938755
        _STATISTICS_WRITING_APP: mkvpropedit v94.0 ('Initiate') 64-bit
        _STATISTICS_WRITING_DATE_UTC: 2026-01-16 12:11:54
        encoder         : Lavc61.19.100 pcm_s16le
frame=  125 fps=0.0 q=-0.0 size=N/A time=00:00:05.21 bitrate=N/A speed=10.1x    frame=  312 fps=304 q=-0.0 size=N/A time=00:00:13.01 bitrate=N/A speed=12.7x    frame=  506 fps=329 q=-0.0 size=N/A time=00:00:21.10 bitrate=N/A speed=13.7x    frame=  707 fps=342 q=-0.0 size=N/A time=00:00:29.48 bitrate=N/A speed=14.3x    frame=  886 fps=344 q=-0.0 size=N/A time=00:00:36.95 bitrate=N/A speed=14.3x    frame= 1026 fps=332 q=-0.0 size=N/A time=00:00:42.79 bitrate=N/A speed=13.9x    frame= 1184 fps=329 q=-0.0 size=N/A time=00:00:49.38 bitrate=N/A speed=13.7x    frame= 1348 fps=327 q=-0.0 size=N/A time=00:00:56.22 bitrate=N/A speed=13.6x    frame= 1508 fps=325 q=-0.0 size=N/A time=00:01:02.89 bitrate=N/A speed=13.6x    frame= 1647 fps=320 q=-0.0 size=N/A time=00:01:08.69 bitrate=N/A speed=13.3x    frame= 1809 fps=319 q=-0.0 size=N/A time=00:01:15.45 bitrate=N/A speed=13.3x    frame= 1977 fps=319 q=-0.0 size=N/A time=00:01:22.45 bitrate=N/A speed=13.3x    frame= 2092 fps=312 q=-0.0 size=N/A time=00:01:27.25 bitrate=N/A speed=  13x    frame= 2243 fps=311 q=-0.0 size=N/A time=00:01:33.55 bitrate=N/A speed=  13x    frame= 2390 fps=309 q=-0.0 size=N/A time=00:01:39.68 bitrate=N/A speed=12.9x    frame= 2527 fps=306 q=-0.0 size=N/A time=00:01:45.39 bitrate=N/A speed=12.8x    frame= 2690 fps=307 q=-0.0 size=N/A time=00:01:52.19 bitrate=N/A speed=12.8x    frame= 2868 fps=309 q=-0.0 size=N/A time=00:01:59.61 bitrate=N/A speed=12.9x    frame= 3043 fps=311 q=-0.0 size=N/A time=00:02:06.91 bitrate=N/A speed=  13x    frame= 3248 fps=315 q=-0.0 size=N/A time=00:02:15.46 bitrate=N/A speed=13.1x    frame= 3435 fps=317 q=-0.0 size=N/A time=00:02:23.26 bitrate=N/A speed=13.2x    frame= 3632 fps=320 q=-0.0 size=N/A time=00:02:31.48 bitrate=N/A speed=13.4x    frame= 3827 fps=323 q=-0.0 size=N/A time=00:02:39.61 bitrate=N/A speed=13.5x    frame= 4030 fps=326 q=-0.0 size=N/A time=00:02:48.08 bitrate=N/A speed=13.6x    frame= 4230 fps=328 q=-0.0 size=N/A time=00:02:56.42 bitrate=N/A speed=13.7x    frame= 4424 fps=330 q=-0.0 size=N/A time=00:03:04.51 bitrate=N/A speed=13.8x    frame= 4614 fps=331 q=-0.0 size=N/A time=00:03:12.44 bitrate=N/A speed=13.8x    frame= 4812 fps=333 q=-0.0 size=N/A time=00:03:20.70 bitrate=N/A speed=13.9x    frame= 5006 fps=334 q=-0.0 size=N/A time=00:03:28.79 bitrate=N/A speed=  14x    frame= 5198 fps=336 q=-0.0 size=N/A time=00:03:36.79 bitrate=N/A speed=  14x    frame= 5395 fps=337 q=-0.0 size=N/A time=00:03:45.01 bitrate=N/A speed=14.1x    frame= 5596 fps=339 q=-0.0 size=N/A time=00:03:53.39 bitrate=N/A speed=14.1x    frame= 5787 fps=340 q=-0.0 size=N/A time=00:04:01.36 bitrate=N/A speed=14.2x    frame= 5981 fps=341 q=-0.0 size=N/A time=00:04:09.45 bitrate=N/A speed=14.2x    frame= 6170 fps=342 q=-0.0 size=N/A time=00:04:17.34 bitrate=N/A speed=14.3x    frame= 6373 fps=343 q=-0.0 size=N/A time=00:04:25.80 bitrate=N/A speed=14.3x    frame= 6571 fps=344 q=-0.0 size=N/A time=00:04:34.06 bitrate=N/A speed=14.4x    frame= 6761 fps=345 q=-0.0 size=N/A time=00:04:41.99 bitrate=N/A speed=14.4x    frame= 6958 fps=346 q=-0.0 size=N/A time=00:04:50.20 bitrate=N/A speed=14.4x    frame= 7152 fps=346 q=-0.0 size=N/A time=00:04:58.29 bitrate=N/A speed=14.5x    frame= 7344 fps=347 q=-0.0 size=N/A time=00:05:06.30 bitrate=N/A speed=14.5x    frame= 7526 fps=347 q=-0.0 size=N/A time=00:05:13.89 bitrate=N/A speed=14.5x    frame= 7717 fps=348 q=-0.0 size=N/A time=00:05:21.86 bitrate=N/A speed=14.5x    frame= 7894 fps=348 q=-0.0 size=N/A time=00:05:29.24 bitrate=N/A speed=14.5x    frame= 8089 fps=348 q=-0.0 size=N/A time=00:05:37.37 bitrate=N/A speed=14.5x    frame= 8275 fps=349 q=-0.0 size=N/A time=00:05:45.13 bitrate=N/A speed=14.5x    frame= 8467 fps=349 q=-0.0 size=N/A time=00:05:53.14 bitrate=N/A speed=14.6x    frame= 8653 fps=350 q=-0.0 size=N/A time=00:06:00.90 bitrate=N/A speed=14.6x    frame= 8845 fps=350 q=-0.0 size=N/A time=00:06:08.91 bitrate=N/A speed=14.6x    frame= 9045 fps=351 q=-0.0 size=N/A time=00:06:17.25 bitrate=N/A speed=14.6x    frame= 9233 fps=351 q=-0.0 size=N/A time=00:06:25.09 bitrate=N/A speed=14.6x    frame= 9428 fps=352 q=-0.0 size=N/A time=00:06:33.22 bitrate=N/A speed=14.7x    frame= 9619 fps=352 q=-0.0 size=N/A time=00:06:41.19 bitrate=N/A speed=14.7x    frame= 9817 fps=352 q=-0.0 size=N/A time=00:06:49.45 bitrate=N/A speed=14.7x    frame=10006 fps=353 q=-0.0 size=N/A time=00:06:57.33 bitrate=N/A speed=14.7x    frame=10204 fps=353 q=-0.0 size=N/A time=00:07:05.59 bitrate=N/A speed=14.7x    frame=10386 fps=353 q=-0.0 size=N/A time=00:07:13.18 bitrate=N/A speed=14.7x    frame=10576 fps=354 q=-0.0 size=N/A time=00:07:21.10 bitrate=N/A speed=14.7x    frame=10772 fps=354 q=-0.0 size=N/A time=00:07:29.28 bitrate=N/A speed=14.8x    frame=10963 fps=354 q=-0.0 size=N/A time=00:07:37.24 bitrate=N/A speed=14.8x    frame=11150 fps=354 q=-0.0 size=N/A time=00:07:45.04 bitrate=N/A speed=14.8x    frame=11337 fps=354 q=-0.0 size=N/A time=00:07:52.84 bitrate=N/A speed=14.8x    frame=11527 fps=355 q=-0.0 size=N/A time=00:08:00.77 bitrate=N/A speed=14.8x    frame=11730 fps=355 q=-0.0 size=N/A time=00:08:09.23 bitrate=N/A speed=14.8x    frame=11919 fps=355 q=-0.0 size=N/A time=00:08:17.12 bitrate=N/A speed=14.8x    frame=12115 fps=356 q=-0.0 size=N/A time=00:08:25.29 bitrate=N/A speed=14.8x    frame=12301 fps=356 q=-0.0 size=N/A time=00:08:33.05 bitrate=N/A speed=14.8x    frame=12490 fps=356 q=-0.0 size=N/A time=00:08:40.93 bitrate=N/A speed=14.8x    frame=12687 fps=356 q=-0.0 size=N/A time=00:08:49.15 bitrate=N/A speed=14.9x    frame=12876 fps=357 q=-0.0 size=N/A time=00:08:57.03 bitrate=N/A speed=14.9x    frame=13076 fps=357 q=-0.0 size=N/A time=00:09:05.37 bitrate=N/A speed=14.9x    frame=13263 fps=357 q=-0.0 size=N/A time=00:09:13.17 bitrate=N/A speed=14.9x    frame=13450 fps=357 q=-0.0 size=N/A time=00:09:20.97 bitrate=N/A speed=14.9x    frame=13641 fps=357 q=-0.0 size=N/A time=00:09:28.94 bitrate=N/A speed=14.9x    frame=13830 fps=357 q=-0.0 size=N/A time=00:09:36.82 bitrate=N/A speed=14.9x    frame=14020 fps=358 q=-0.0 size=N/A time=00:09:44.75 bitrate=N/A speed=14.9x    frame=14192 fps=357 q=-0.0 size=N/A time=00:09:51.92 bitrate=N/A speed=14.9x    frame=14391 fps=358 q=-0.0 size=N/A time=00:10:00.22 bitrate=N/A speed=14.9x    frame=14567 fps=357 q=-0.0 size=N/A time=00:10:07.56 bitrate=N/A speed=14.9x    frame=14757 fps=358 q=-0.0 size=N/A time=00:10:15.48 bitrate=N/A speed=14.9x    frame=14948 fps=358 q=-0.0 size=N/A time=00:10:23.45 bitrate=N/A speed=14.9x    frame=15124 fps=357 q=-0.0 size=N/A time=00:10:30.79 bitrate=N/A speed=14.9x    frame=15294 fps=357 q=-0.0 size=N/A time=00:10:37.88 bitrate=N/A speed=14.9x    frame=15485 fps=357 q=-0.0 size=N/A time=00:10:45.85 bitrate=N/A speed=14.9x    frame=15678 fps=357 q=-0.0 size=N/A time=00:10:53.90 bitrate=N/A speed=14.9x    frame=15865 fps=357 q=-0.0 size=N/A time=00:11:01.70 bitrate=N/A speed=14.9x    frame=16062 fps=358 q=-0.0 size=N/A time=00:11:09.91 bitrate=N/A speed=14.9x    frame=16256 fps=358 q=-0.0 size=N/A time=00:11:18.01 bitrate=N/A speed=14.9x    frame=16435 fps=358 q=-0.0 size=N/A time=00:11:25.47 bitrate=N/A speed=14.9x    frame=16628 fps=358 q=-0.0 size=N/A time=00:11:33.52 bitrate=N/A speed=14.9x    frame=16815 fps=358 q=-0.0 size=N/A time=00:11:41.32 bitrate=N/A speed=14.9x    frame=17020 fps=358 q=-0.0 size=N/A time=00:11:49.87 bitrate=N/A speed=14.9x    frame=17212 fps=359 q=-0.0 size=N/A time=00:11:57.88 bitrate=N/A speed=  15x    frame=17398 fps=359 q=-0.0 size=N/A time=00:12:05.64 bitrate=N/A speed=  15x    frame=17583 fps=359 q=-0.0 size=N/A time=00:12:13.35 bitrate=N/A speed=  15x    frame=17780 fps=359 q=-0.0 size=N/A time=00:12:21.57 bitrate=N/A speed=  15x    frame=17972 fps=359 q=-0.0 size=N/A time=00:12:29.58 bitrate=N/A speed=  15x    frame=18160 fps=359 q=-0.0 size=N/A time=00:12:37.42 bitrate=N/A speed=  15x    frame=18335 fps=359 q=-0.0 size=N/A time=00:12:44.72 bitrate=N/A speed=  15x    frame=18524 fps=359 q=-0.0 size=N/A time=00:12:52.60 bitrate=N/A speed=  15x    frame=18720 fps=359 q=-0.0 size=N/A time=00:13:00.78 bitrate=N/A speed=  15x    frame=18912 fps=359 q=-0.0 size=N/A time=00:13:08.78 bitrate=N/A speed=  15x    frame=19107 fps=360 q=-0.0 size=N/A time=00:13:16.92 bitrate=N/A speed=  15x    frame=19303 fps=360 q=-0.0 size=N/A time=00:13:25.09 bitrate=N/A speed=  15x    frame=19493 fps=360 q=-0.0 size=N/A time=00:13:33.02 bitrate=N/A speed=  15x    frame=19681 fps=360 q=-0.0 size=N/A time=00:13:40.86 bitrate=N/A speed=  15x    frame=19875 fps=360 q=-0.0 size=N/A time=00:13:48.95 bitrate=N/A speed=  15x    frame=20070 fps=360 q=-0.0 size=N/A time=00:13:57.08 bitrate=N/A speed=  15x    frame=20264 fps=360 q=-0.0 size=N/A time=00:14:05.17 bitrate=N/A speed=  15x    frame=20449 fps=360 q=-0.0 size=N/A time=00:14:12.89 bitrate=N/A speed=  15x    frame=20627 fps=360 q=-0.0 size=N/A time=00:14:20.31 bitrate=N/A speed=  15x    frame=20816 fps=360 q=-0.0 size=N/A time=00:14:28.20 bitrate=N/A speed=  15x    frame=21008 fps=360 q=-0.0 size=N/A time=00:14:36.20 bitrate=N/A speed=  15x    frame=21205 fps=360 q=-0.0 size=N/A time=00:14:44.42 bitrate=N/A speed=  15x    frame=21383 fps=360 q=-0.0 size=N/A time=00:14:51.84 bitrate=N/A speed=  15x    frame=21561 fps=360 q=-0.0 size=N/A time=00:14:59.27 bitrate=N/A speed=  15x    frame=21748 fps=360 q=-0.0 size=N/A time=00:15:07.07 bitrate=N/A speed=  15x    frame=21937 fps=360 q=-0.0 size=N/A time=00:15:14.95 bitrate=N/A speed=  15x    frame=22121 fps=360 q=-0.0 size=N/A time=00:15:22.63 bitrate=N/A speed=  15x    frame=22311 fps=360 q=-0.0 size=N/A time=00:15:30.55 bitrate=N/A speed=  15x    frame=22507 fps=360 q=-0.0 size=N/A time=00:15:38.72 bitrate=N/A speed=  15x    frame=22692 fps=360 q=-0.0 size=N/A time=00:15:46.44 bitrate=N/A speed=  15x    frame=22878 fps=360 q=-0.0 size=N/A time=00:15:54.20 bitrate=N/A speed=  15x    frame=23068 fps=361 q=-0.0 size=N/A time=00:16:02.12 bitrate=N/A speed=  15x    frame=23257 fps=361 q=-0.0 size=N/A time=00:16:10.01 bitrate=N/A speed=  15x    frame=23448 fps=361 q=-0.0 size=N/A time=00:16:17.97 bitrate=N/A speed=  15x    frame=23634 fps=361 q=-0.0 size=N/A time=00:16:25.73 bitrate=N/A speed=  15x    frame=23833 fps=361 q=-0.0 size=N/A time=00:16:34.03 bitrate=N/A speed=15.1x    frame=24033 fps=361 q=-0.0 size=N/A time=00:16:42.37 bitrate=N/A speed=15.1x    frame=24216 fps=361 q=-0.0 size=N/A time=00:16:50.00 bitrate=N/A speed=15.1x    frame=24409 fps=361 q=-0.0 size=N/A time=00:16:58.05 bitrate=N/A speed=15.1x    frame=24605 fps=361 q=-0.0 size=N/A time=00:17:06.23 bitrate=N/A speed=15.1x    frame=24802 fps=361 q=-0.0 size=N/A time=00:17:14.45 bitrate=N/A speed=15.1x    frame=24994 fps=362 q=-0.0 size=N/A time=00:17:22.45 bitrate=N/A speed=15.1x    frame=25191 fps=362 q=-0.0 size=N/A time=00:17:30.67 bitrate=N/A speed=15.1x    frame=25388 fps=362 q=-0.0 size=N/A time=00:17:38.89 bitrate=N/A speed=15.1x    frame=25587 fps=362 q=-0.0 size=N/A time=00:17:47.19 bitrate=N/A speed=15.1x    frame=25776 fps=362 q=-0.0 size=N/A time=00:17:55.07 bitrate=N/A speed=15.1x    frame=25970 fps=362 q=-0.0 size=N/A time=00:18:03.16 bitrate=N/A speed=15.1x    frame=26163 fps=362 q=-0.0 size=N/A time=00:18:11.21 bitrate=N/A speed=15.1x    frame=26363 fps=362 q=-0.0 size=N/A time=00:18:19.55 bitrate=N/A speed=15.1x    frame=26555 fps=362 q=-0.0 size=N/A time=00:18:27.56 bitrate=N/A speed=15.1x    frame=26749 fps=363 q=-0.0 size=N/A time=00:18:35.65 bitrate=N/A speed=15.1x    frame=26928 fps=362 q=-0.0 size=N/A time=00:18:43.12 bitrate=N/A speed=15.1x    frame=27116 fps=362 q=-0.0 size=N/A time=00:18:50.96 bitrate=N/A speed=15.1x    frame=27292 fps=362 q=-0.0 size=N/A time=00:18:58.30 bitrate=N/A speed=15.1x    frame=27482 fps=362 q=-0.0 size=N/A time=00:19:06.22 bitrate=N/A speed=15.1x    frame=27671 fps=362 q=-0.0 size=N/A time=00:19:14.11 bitrate=N/A speed=15.1x    frame=27860 fps=362 q=-0.0 size=N/A time=00:19:21.99 bitrate=N/A speed=15.1x    frame=28043 fps=362 q=-0.0 size=N/A time=00:19:29.62 bitrate=N/A speed=15.1x    frame=28239 fps=362 q=-0.0 size=N/A time=00:19:37.80 bitrate=N/A speed=15.1x    frame=28432 fps=363 q=-0.0 size=N/A time=00:19:45.85 bitrate=N/A speed=15.1x    frame=28629 fps=363 q=-0.0 size=N/A time=00:19:54.06 bitrate=N/A speed=15.1x    frame=28806 fps=363 q=-0.0 size=N/A time=00:20:01.45 bitrate=N/A speed=15.1x    frame=28974 fps=362 q=-0.0 size=N/A time=00:20:08.45 bitrate=N/A speed=15.1x    frame=29153 fps=362 q=-0.0 size=N/A time=00:20:15.92 bitrate=N/A speed=15.1x    frame=29338 fps=362 q=-0.0 size=N/A time=00:20:23.63 bitrate=N/A speed=15.1x    frame=29512 fps=362 q=-0.0 size=N/A time=00:20:30.89 bitrate=N/A speed=15.1x    frame=29691 fps=362 q=-0.0 size=N/A time=00:20:38.36 bitrate=N/A speed=15.1x    frame=29870 fps=362 q=-0.0 size=N/A time=00:20:45.82 bitrate=N/A speed=15.1x    frame=30035 fps=362 q=-0.0 size=N/A time=00:20:52.70 bitrate=N/A speed=15.1x    frame=30217 fps=362 q=-0.0 size=N/A time=00:21:00.30 bitrate=N/A speed=15.1x    frame=30399 fps=362 q=-0.0 size=N/A time=00:21:07.89 bitrate=N/A speed=15.1x    frame=30600 fps=362 q=-0.0 size=N/A time=00:21:16.27 bitrate=N/A speed=15.1x    frame=30790 fps=362 q=-0.0 size=N/A time=00:21:24.19 bitrate=N/A speed=15.1x    frame=30982 fps=362 q=-0.0 size=N/A time=00:21:32.20 bitrate=N/A speed=15.1x    frame=31171 fps=362 q=-0.0 size=N/A time=00:21:40.09 bitrate=N/A speed=15.1x    frame=31351 fps=362 q=-0.0 size=N/A time=00:21:47.59 bitrate=N/A speed=15.1x    frame=31537 fps=362 q=-0.0 size=N/A time=00:21:55.35 bitrate=N/A speed=15.1x    frame=31725 fps=362 q=-0.0 size=N/A time=00:22:03.19 bitrate=N/A speed=15.1x    frame=31905 fps=362 q=-0.0 size=N/A time=00:22:10.70 bitrate=N/A speed=15.1x    frame=32083 fps=362 q=-0.0 size=N/A time=00:22:18.12 bitrate=N/A speed=15.1x    frame=32283 fps=362 q=-0.0 size=N/A time=00:22:26.47 bitrate=N/A speed=15.1x    frame=32464 fps=362 q=-0.0 size=N/A time=00:22:34.01 bitrate=N/A speed=15.1x    frame=32645 fps=362 q=-0.0 size=N/A time=00:22:41.56 bitrate=N/A speed=15.1x    frame=32791 fps=361 q=-0.0 size=N/A time=00:22:47.65 bitrate=N/A speed=15.1x    frame=32972 fps=361 q=-0.0 size=N/A time=00:22:55.20 bitrate=N/A speed=15.1x    frame=33145 fps=361 q=-0.0 size=N/A time=00:23:02.42 bitrate=N/A speed=15.1x    frame=33325 fps=361 q=-0.0 size=N/A time=00:23:09.93 bitrate=N/A speed=15.1x    frame=33487 fps=361 q=-0.0 size=N/A time=00:23:16.68 bitrate=N/A speed=  15x    frame=33642 fps=360 q=-0.0 size=N/A time=00:23:23.15 bitrate=N/A speed=  15x    frame=33778 fps=360 q=-0.0 size=N/A time=00:23:28.82 bitrate=N/A speed=  15x    frame=33900 fps=359 q=-0.0 size=N/A time=00:23:33.91 bitrate=N/A speed=  15x    frame=34065 fps=359 q=-0.0 size=N/A time=00:23:40.79 bitrate=N/A speed=  15x    frame=34229 fps=359 q=-0.0 size=N/A time=00:23:47.63 bitrate=N/A speed=  15x    frame=34363 fps=358 q=-0.0 size=N/A time=00:23:53.22 bitrate=N/A speed=14.9x    frame=34502 fps=358 q=-0.0 size=N/A time=00:23:59.02 bitrate=N/A speed=14.9x    [Parsed_psnr_16 @ 00000289272cfdc0] PSNR y:48.990001 u:50.351220 v:50.397584 average:49.404278 min:37.988377 max:inf
[out#0/null @ 000002891a1ec140] video:14903KiB audio:271276KiB subtitle:0KiB other streams:0KiB global headers:0KiB muxing overhead: unknown
frame=34683 fps=358 q=-0.0 Lsize=N/A time=00:24:06.57 bitrate=N/A speed=14.9x    
